<?xml version="1.0" encoding="UTF-8" standalone="no"?>
<!DOCTYPE svg PUBLIC "-//W3C//DTD SVG 1.0//EN"
 "http://www.w3.org/TR/2001/REC-SVG-20010904/DTD/svg10.dtd" [
 <!ATTLIST svg xmlns:xlink CDATA #FIXED "http://www.w3.org/1999/xlink">
]>
<!-- Generated by dot version 2.6 (Sun Aug 28 13:14:52 UTC 2005)
     For user: Bill Gates -->
<!-- Title: G Pages: 1 -->
<svg width="245pt" height="235pt"
 viewBox = "0 0 245 235"
 xmlns="http://www.w3.org/2000/svg" xmlns:xlink="http://www.w3.org/1999/xlink">
<g id="graph0" class="graph" style="font-family:Times-Roman;font-size:14.00;">
<title>G</title>
<!-- math -->
<g id="node1" class="node"><title>math</title>
<ellipse style="fill:none;stroke:black;" cx="33" cy="127" rx="27" ry="18"/>
<text text-anchor="middle" x="33" y="132">math</text>
</g>
<!-- model -->
<g id="node3" class="node"><title>model</title>
<ellipse style="fill:none;stroke:black;" cx="110" cy="136" rx="31" ry="18"/>
<text text-anchor="middle" x="110" y="141">model</text>
</g>
<!-- math&#45;&gt;model -->
<g id="edge2" class="edge"><title>math&#45;&gt;model</title>
<path style="fill:none;stroke:black;" d="M60,130C63,130 66,131 69,131"/>
<polygon style="fill:black;stroke:black;" points="69,128 79,132 69,134 69,128"/>
</g>
<!-- render -->
<g id="node7" class="node"><title>render</title>
<ellipse style="fill:none;stroke:black;" cx="160" cy="77" rx="31" ry="18"/>
<text text-anchor="middle" x="160" y="82">render</text>
</g>
<!-- model&#45;&gt;render -->
<g id="edge6" class="edge"><title>model&#45;&gt;render</title>
<path style="fill:none;stroke:black;" d="M124,120C129,114 134,108 140,101"/>
<polygon style="fill:black;stroke:black;" points="137,99 146,93 143,103 137,99"/>
</g>
<!-- vfs -->
<g id="node4" class="node"><title>vfs</title>
<ellipse style="fill:none;stroke:black;" cx="133" cy="211" rx="27" ry="18"/>
<text text-anchor="middle" x="133" y="216">vfs</text>
</g>
<!-- vfs&#45;&gt;model -->
<g id="edge4" class="edge"><title>vfs&#45;&gt;model</title>
<path style="fill:none;stroke:black;" d="M128,193C125,184 122,174 119,164"/>
<polygon style="fill:black;stroke:black;" points="116,165 116,154 122,163 116,165"/>
</g>
<!-- object -->
<g id="node9" class="node"><title>object</title>
<ellipse style="fill:none;stroke:black;" cx="209" cy="24" rx="30" ry="18"/>
<text text-anchor="middle" x="209" y="29">object</text>
</g>
<!-- render&#45;&gt;object -->
<g id="edge8" class="edge"><title>render&#45;&gt;object</title>
<path style="fill:none;stroke:black;" d="M175,61C179,57 183,52 187,48"/>
<polygon style="fill:black;stroke:black;" points="185,45 194,40 190,50 185,45"/>
</g>
</g>
</svg>
