<?xml version="1.0" encoding="UTF-8" standalone="no"?>
<!DOCTYPE svg PUBLIC "-//W3C//DTD SVG 1.0//EN"
 "http://www.w3.org/TR/2001/REC-SVG-20010904/DTD/svg10.dtd" [
 <!ATTLIST svg xmlns:xlink CDATA #FIXED "http://www.w3.org/1999/xlink">
]>
<!-- Generated by dot version 2.6 (Sun Aug 28 13:14:52 UTC 2005)
     For user: Bill Gates -->
<!-- Title: pwn_component_dependencies Pages: 1 -->
<svg width="310pt" height="334pt"
 viewBox = "0 0 310 334"
 xmlns="http://www.w3.org/2000/svg" xmlns:xlink="http://www.w3.org/1999/xlink">
<g id="graph0" class="graph" style="font-family:Times-Roman;font-size:14.00;">
<title>pwn_component_dependencies</title>
<!-- core -->
<g id="node1" class="node"><title>core</title>
<ellipse style="fill:none;stroke:black;" cx="46" cy="23" rx="27" ry="18"/>
<text text-anchor="middle" x="46" y="28">core</text>
</g>
<!-- convert -->
<g id="node3" class="node"><title>convert</title>
<ellipse style="fill:none;stroke:black;" cx="77" cy="95" rx="34" ry="18"/>
<text text-anchor="middle" x="77" y="100">convert</text>
</g>
<!-- core&#45;&gt;convert -->
<g id="edge2" class="edge"><title>core&#45;&gt;convert</title>
<path style="fill:none;stroke:black;" d="M54,40C58,49 62,59 66,68"/>
<polygon style="fill:black;stroke:black;" points="69,66 70,77 63,69 69,66"/>
</g>
<!-- engine -->
<g id="node7" class="node"><title>engine</title>
<ellipse style="fill:none;stroke:black;" cx="177" cy="239" rx="31" ry="18"/>
<text text-anchor="middle" x="177" y="244">engine</text>
</g>
<!-- core&#45;&gt;engine -->
<g id="edge6" class="edge"><title>core&#45;&gt;engine</title>
<path style="fill:none;stroke:black;" d="M38,41C31,59 23,90 34,113 56,163 110,201 145,222"/>
<polygon style="fill:black;stroke:black;" points="147,219 154,227 144,225 147,219"/>
</g>
<!-- math -->
<g id="node4" class="node"><title>math</title>
<ellipse style="fill:none;stroke:black;" cx="195" cy="23" rx="27" ry="18"/>
<text text-anchor="middle" x="195" y="28">math</text>
</g>
<!-- math&#45;&gt;convert -->
<g id="edge4" class="edge"><title>math&#45;&gt;convert</title>
<path style="fill:none;stroke:black;" d="M175,35C157,46 129,63 108,76"/>
<polygon style="fill:black;stroke:black;" points="109,79 99,81 106,73 109,79"/>
</g>
<!-- math&#45;&gt;engine -->
<g id="edge12" class="edge"><title>math&#45;&gt;engine</title>
<path style="fill:none;stroke:black;" d="M181,38C172,49 162,63 158,77 144,123 156,179 167,211"/>
<polygon style="fill:black;stroke:black;" points="170,210 170,221 164,212 170,210"/>
</g>
<!-- mesh -->
<g id="node8" class="node"><title>mesh</title>
<ellipse style="fill:none;stroke:black;" cx="195" cy="95" rx="28" ry="18"/>
<text text-anchor="middle" x="195" y="100">mesh</text>
</g>
<!-- math&#45;&gt;mesh -->
<g id="edge20" class="edge"><title>math&#45;&gt;mesh</title>
<path style="fill:none;stroke:black;" d="M195,41C195,49 195,58 195,67"/>
<polygon style="fill:black;stroke:black;" points="199,67 195,77 192,67 199,67"/>
</g>
<!-- render -->
<g id="node10" class="node"><title>render</title>
<ellipse style="fill:none;stroke:black;" cx="236" cy="167" rx="31" ry="18"/>
<text text-anchor="middle" x="236" y="172">render</text>
</g>
<!-- math&#45;&gt;render -->
<g id="edge24" class="edge"><title>math&#45;&gt;render</title>
<path style="fill:none;stroke:black;" d="M209,39C217,49 227,63 232,77 239,97 239,121 238,139"/>
<polygon style="fill:black;stroke:black;" points="242,139 238,149 235,139 242,139"/>
</g>
<!-- game -->
<g id="node14" class="node"><title>game</title>
<ellipse style="fill:none;stroke:black;" cx="236" cy="311" rx="28" ry="18"/>
<text text-anchor="middle" x="236" y="316">game</text>
</g>
<!-- math&#45;&gt;game -->
<g id="edge16" class="edge"><title>math&#45;&gt;game</title>
<path style="fill:none;stroke:black;" d="M211,38C222,48 236,62 246,77 264,107 269,116 276,149 285,197 265,252 249,285"/>
<polygon style="fill:black;stroke:black;" points="252,286 245,294 246,283 252,286"/>
</g>
<!-- engine&#45;&gt;game -->
<g id="edge14" class="edge"><title>engine&#45;&gt;game</title>
<path style="fill:none;stroke:black;" d="M190,255C198,265 208,277 217,287"/>
<polygon style="fill:black;stroke:black;" points="220,285 223,295 214,289 220,285"/>
</g>
<!-- mesh&#45;&gt;engine -->
<g id="edge8" class="edge"><title>mesh&#45;&gt;engine</title>
<path style="fill:none;stroke:black;" d="M193,113C189,138 184,182 180,211"/>
<polygon style="fill:black;stroke:black;" points="183,211 179,221 177,211 183,211"/>
</g>
<!-- mesh&#45;&gt;render -->
<g id="edge22" class="edge"><title>mesh&#45;&gt;render</title>
<path style="fill:none;stroke:black;" d="M205,112C210,120 216,131 221,140"/>
<polygon style="fill:black;stroke:black;" points="224,139 226,149 218,142 224,139"/>
</g>
<!-- render&#45;&gt;engine -->
<g id="edge10" class="edge"><title>render&#45;&gt;engine</title>
<path style="fill:none;stroke:black;" d="M223,183C215,192 206,204 197,214"/>
<polygon style="fill:black;stroke:black;" points="200,216 191,222 194,212 200,216"/>
</g>
<!-- render&#45;&gt;game -->
<g id="edge18" class="edge"><title>render&#45;&gt;game</title>
<path style="fill:none;stroke:black;" d="M236,185C236,210 236,254 236,283"/>
<polygon style="fill:black;stroke:black;" points="240,283 236,293 233,283 240,283"/>
</g>
</g>
</svg>
